<?xml version="1.0" encoding="UTF-8" standalone="no"?><!DOCTYPE svg PUBLIC "-//W3C//DTD SVG 1.1//EN" "http://www.w3.org/Graphics/SVG/1.1/DTD/svg11.dtd"><svg width="100%" height="100%" viewBox="0 0 2500 1250" version="1.1" xmlns="http://www.w3.org/2000/svg" xmlns:xlink="http://www.w3.org/1999/xlink" xml:space="preserve" xmlns:serif="http://www.serif.com/" style="fill-rule:evenodd;clip-rule:evenodd;stroke-linejoin:round;stroke-miterlimit:2;"><clipPath id="_clip1"><rect x="0" y="276.563" width="2500" height="696.875"/></clipPath><g clip-path="url(#_clip1)"><path d="M2564.7,337.688c-21.483,-7.523 -50.092,-10.337 -79.161,-12.8c1.951,-1.488 2.71,-3.788 2.493,-6.683c-16.309,-0.542 -23.136,5.033 -40.773,3.653c5.472,-3.491 1.057,-6.332 -7.694,-4.952c5.039,-4.303 20.861,-1.678 20.427,3.166c3.224,-0.46 2.574,-3.329 -0.027,-3.329c41.531,2.246 84.335,-4.654 119.906,2.436c-20.887,-14.396 -88.67,-14.099 -120.042,-22.46c1.978,-3.87 15.767,-1.732 12.787,3.247c3.359,-1.705 9.482,-1.678 10.16,-5.087c27.66,5.466 59.113,7.522 86.746,6.061c31.534,11.988 74.041,16.723 92.084,37.722c1.138,13.557 -2.493,20.782 0.243,31.715c-8.127,14.125 -17.094,27.736 -32.889,36.937c11.108,13.719 17.61,24.056 18.152,38.263c-3.333,2.733 -18.775,6.143 -7.586,8.416c-5.283,2.111 -10.728,4.14 -15.253,6.792c1.301,4.357 14.115,5.52 7.722,9.931c-8.832,1.407 -9.807,-2.408 -17.853,-1.542c1.95,9.795 20.67,13.882 25.709,26.519c6.204,15.559 -5.391,34.204 -4.713,53.444c-24.952,0.162 -16.093,24.706 -50.851,22.054c26.251,10.689 64.559,21.675 97.096,22.649c5.851,6.765 14.25,24.679 0.216,30.037c2.98,3.031 6.692,5.601 10.268,8.28c-5.337,4.141 -26.035,0.217 -17.799,8.47c-25.466,4.14 -58.409,-1.84 -76.398,12.231c0.298,4.276 9.536,2.625 12.787,4.925c0.813,4.249 -4.714,9.769 -2.438,13.368c14.304,3.464 7.206,6.305 20.454,6.522c-3.142,4.627 -7.992,8.145 -17.799,8.47c7.802,4.302 22.106,4.275 25.574,11.5c-29.069,7.956 -41.747,2.517 -73.932,3.897c46.137,8.443 87.397,20.133 125.216,34.123c0.488,7.279 0.975,14.585 -5.012,13.395c4.822,5.222 8.615,1.353 12.733,-1.759c2.79,14.369 4.227,23.163 18.097,31.579c-5.039,11.879 -22.811,7.198 -38.172,10.283c2.276,8.01 5.744,15.208 17.962,16.561c-7.992,15.208 -51.365,13.097 -66.157,18.834c5.852,9.958 21.808,1.704 35.706,-0.271c-3.495,6.792 5.581,5.223 5.174,9.985c-45.378,1.678 -49.441,15.343 -96.851,10.716c-1.247,43.459 -34.704,66.217 -52.801,98.851c-22.161,-4.059 -31.914,3.302 -43.293,10.337c-1.138,4.655 13.871,-1.434 12.76,3.22c-19.912,5.845 -47.924,4.925 -76.452,7.252c-26.631,2.192 -49.116,2.246 -66.319,-4.492c-131.285,16.561 -234.178,3.491 -372.29,11.068c-2.275,-5.331 8.399,-2.327 7.586,-6.711c-42.452,-0.189 -116.845,12.313 -158.105,2.814c-8.209,1.57 -3.603,-5.412 -7.694,-6.629c-32.239,1.001 -61.254,11.744 -81.599,0.595c-45.866,-2.544 -96.716,11.149 -130.093,0.974c-134.021,2.3 -242.007,8.335 -354.544,-4.059c-64.098,-3.085 -116.412,1.353 -181.106,-2.002c9.076,-7.983 30.424,-8.091 48.385,-10.364c-23.569,-2.761 -61.985,-3.302 -94.359,-0.975c-108.257,7.794 -221.066,5.25 -331.544,0.785c-5.093,-3.842 0.623,-1.867 2.52,-5.033c-21.728,-5.358 -44.511,2.111 -63.746,3.816c-4.795,-3.139 -0.325,-4.195 -0.054,-8.362c-21.809,-2.138 -15.388,5.033 -28.013,6.873c-11.866,1.57 3.495,-4.329 -5.12,-4.979c-5.446,-0.731 -4.85,2.436 -5.066,5.06c-29.232,-2.3 -52.612,-3.788 -86.72,-1.028c-10.511,0.866 1.951,-4.194 -5.147,-6.63c-42.886,-0.595 -103.733,9.12 -150.438,4.438c-22.161,-2.192 -36.194,0.271 -61.227,0.487c-21.402,0.163 -42.344,-8.605 -66.374,-11.203c-19.749,-2.11 -49.17,4.736 -79.052,0.569c0.542,-2.409 7.585,-0.623 7.585,-3.383c-86.746,3.004 -193.215,3.41 -275.356,12.042c-99.1,-6.386 -213.751,9.796 -303.423,8.903c2.167,-2.517 6.393,-3.653 12.733,-3.437c-87.695,-6.684 -222.366,-7.847 -334.118,-4.194c-10.593,0.947 -10.864,8.497 -25.439,6.846c-6.773,9.579 -27.281,10.256 -40.718,13.665c-2.357,0.596 -9.97,5.006 -12.733,5.088c-40.718,1.731 -28.581,-29.117 -51.338,-44.677c-12.029,4.898 -24.491,6.819 -35.707,0.271c0.84,-10.554 19.479,-9.58 25.385,-16.859c-3.278,-2.354 -14.331,-5.358 -15.28,0.108c-5.797,-3.355 -5.689,-8.686 -0.081,-11.69c-9.048,-0.838 -6.204,5.954 -15.252,5.115c-1.111,-3.491 1.707,-4.438 2.519,-6.711c-8.154,-0.92 -7.883,3.193 -12.787,0.108c-0.677,-10.418 0.623,-19.537 10.051,-23.434c-51.283,-10.635 -92.841,-37.722 -135.672,-59.045c1.138,-10.337 14.087,-13.07 15.144,-23.462c31.236,-6.142 51.338,-9.2 89.157,-10.688c6.069,-3.302 -4.713,-9.309 2.466,-13.368c10.728,1.569 25.709,1.082 33.132,-6.928c-9.373,-2.381 -13.979,-0.487 -25.52,-3.138c1.68,-3.897 8.453,-4.547 10.133,-8.443c-16.201,-9.553 9.59,-24.436 -0.271,-35.043c4.334,-3.87 14.385,2.625 22.973,1.515c-13.41,-5.141 13.681,-2.977 17.799,-6.819c-1.083,-3.464 -21.294,3.761 -15.306,-3.22c-25.521,2.625 -18.016,-1.083 -38.253,0.297c3.088,-25.382 42.316,-35.205 83.82,-47.355c-5.824,-5.06 -15.469,-14.721 -10.376,-21.621c-3.467,-3.193 -14.277,2.868 -20.372,3.464c-0,-4.98 6.583,-5.71 7.558,-10.04c-6.041,-4.032 -4.741,2.517 -12.733,1.732c7.504,-9.823 21.348,-6.657 33.079,-11.906c-11.595,-6.333 -23.705,-0.271 -38.253,0.297c1.083,-2.652 7.992,-1.515 5.066,-6.711c-7.261,-0.243 -4.958,5.683 -15.28,3.437c-1.273,-5.223 7.802,-3.843 5.039,-10.039c-13.139,1.948 -29.177,3.544 -40.799,1.948c-0.055,-6.116 8.886,-6.44 12.678,-10.094c-8.452,-2.706 -14.385,1.732 -25.466,1.841c-1.056,-7.334 -1.11,-15.046 17.718,-16.805c-0.84,-3.87 0.379,-6.413 2.493,-8.389c-10.701,-4.681 -15.388,-1.813 -38.28,-3.057c-4.064,-7.469 10.565,-13.07 7.504,-18.401c-7.017,-12.177 -21.24,-9.877 -40.962,-9.715c8.181,-6.738 4.361,-11.068 12.624,-16.777c-12.733,-5.006 -3.332,-11.176 -2.709,-21.676c4.579,-0.243 5.391,2.003 10.214,1.597c5.797,-17.86 50.417,-10.716 55.889,-28.765c-11.785,-3.328 -4.497,-19.348 -15.469,-23.272c14.223,-21.837 1.409,-61.102 47.979,-62.103c-2.709,-7.171 -11.027,-10.554 -25.575,-9.823c2.33,-7.658 -5.445,-8.686 -15.333,-8.253c4.063,-8.497 5.608,-9.093 -5.202,-13.287c11.568,-14.694 8.561,-29.496 20.021,-50.224c105.385,5.818 251.57,5.521 344.412,10.797c2.465,-0.054 1.951,-2.056 2.52,-3.355c20.21,9.227 51.446,3.842 71.385,-2.192c-1.327,1.353 -2.628,2.733 -2.492,5.033c11.134,1.083 14.331,-2.922 25.466,-1.84c21.944,3.518 103.218,-6.954 155.504,-7.82c57.38,-0.974 117.116,-8.768 145.264,-16.101c9.13,14.288 38.307,8.767 68.92,7.82c7.748,-0.676 4.362,6.062 10.241,6.603c15.632,-7.442 61.064,4.005 79.025,-5.574c1.517,-4.357 -1.056,-6.008 -7.667,-4.98c18.07,-5.899 40.746,0.596 61.173,-3.788c-1.68,-1.678 -5.879,-1.678 -5.121,-4.979c34.867,1.867 71.901,7.36 94.468,15.993c12.408,-3.437 20.075,1.731 30.64,3.112c30.316,3.95 76.1,-3.735 112.186,-4.168c111.21,-1.38 220.469,7.767 323.931,0.947c1.68,1.678 5.879,1.678 5.12,4.979c80.759,-1.298 145.101,-7.306 224.371,-6.656c0.758,-4.411 -5.337,-4.276 -10.241,-4.952c20.292,-1.786 39.391,4.437 56.161,7.928c17.663,-11.69 31.371,1.597 56.106,1.272c1.463,3.68 -4.823,2.408 -5.066,5.06c82.981,5.737 157.157,-20.241 242.224,-6.819c3.278,-2.868 8.371,-4.573 15.279,-5.087c-2.384,10.662 -26.007,7.604 -38.171,11.933c39.092,0.271 86.258,-5.195 132.639,4.032c16.119,-15.64 62.31,-6.142 99.371,-10.743c0.731,2.706 -2.384,2.896 -2.52,5.034c12.029,-0.163 19.371,2.814 30.641,3.112c0.162,-5.683 -9.482,-4.871 -17.881,-4.871c20.346,-8.281 48.9,5.953 58.572,-10.473c13.817,1.949 23.082,1.949 30.586,-3.572c0.731,2.706 -2.384,2.896 -2.52,5.061c70.601,9.254 150.953,8.118 242.333,8.226c-1.192,-6.467 -17.583,-2.814 -23.001,-6.494c86.611,-8.335 184.303,16.344 272.864,-2.03c-12.652,-5.195 -41.287,-4.194 -51.067,-6.278c-5.283,-0.947 -16.715,2.192 -17.826,-1.542c29.096,0.649 39.12,-4.303 63.746,-3.816c3.928,-1.894 5.255,-5.466 12.706,-5.087c-5.527,3.518 1.3,4.762 0.081,10.012c11.026,1.57 14.114,-1.975 20.372,-3.491c14.007,7.334 26.929,4.411 43.374,-0.324c88.507,16.209 201.559,1.921 300.985,7.766c-24.003,8.253 -59.683,-0.054 -81.545,10.635c4.416,4.329 25.303,-2.273 20.481,8.199c10.917,0.947 10.349,-5.52 20.372,-5.142c3.278,2.165 3.305,6.143 0.054,8.362c20.725,-4.059 59.141,-3.301 84.2,6.062c-7.639,0.054 -15.279,0.108 -22.973,0.162c53.018,4.005 134.888,13.665 196.494,11.906c5.553,8.524 10.809,0.244 30.721,4.736Zm-1833.95,-28.197c12.625,-0.893 25.981,1.083 15.334,6.549c10.376,0.595 13.031,-3.762 20.346,-5.142c-10.783,-0.027 -6.069,-3.761 -2.601,-6.657c-9.834,6.116 -31.562,-5.763 -33.079,5.25Zm1239.4,-10.824c-3.196,-0.352 -5.228,-2.571 -5.093,1.678c13.058,-0.298 25.493,-1.813 33.16,-0.244c-0.785,-7.09 -22.106,-5.872 -28.067,-1.434Zm-703.616,41.889c-2.438,6.116 14.277,3.464 12.76,-0.081c-6.339,-0.135 -7.911,-3.058 -12.76,0.081Zm17.88,3.22c8.561,-1.136 23.705,1.976 28.04,-1.867c-13.6,-0.811 -19.289,-5.412 -28.04,1.867Zm-379.414,79.585c7.287,5.006 21.7,-1.245 23,4.843c7.586,0.055 12.923,-5.006 17.853,-1.786c-0.027,-2.219 -0.027,-4.437 -0.054,-6.683c-12.651,1.813 -30.044,0.568 -40.799,3.626Zm1194.21,81.316c7.639,-1.705 18.53,-1.38 20.345,-6.82c-9.996,0.19 -22.404,-1.136 -20.345,6.82Zm56.187,11.257c35.3,-3.302 -15.279,-4.817 -20.399,0.162c8.479,-0.379 15.116,0.325 20.399,-0.162Zm-2312.44,108.863c2.004,1.353 15.604,1.651 15.252,-3.437c-6.746,0.082 -15.009,-0.811 -15.252,3.437Zm760.698,91.193c3.251,-6.197 -15.172,-6.521 -17.881,-3.193c9.997,-1.651 6.502,5.737 17.881,3.193Zm40.799,-0.325c22.676,2.896 41.586,-0.054 68.866,1.164c-13.952,-2.354 -54.751,-7.55 -68.866,-1.164Zm132.64,0.731c-4.01,-0.135 -8.832,0.298 -7.667,-3.301c-15.442,3.545 -38.903,-0.244 -51.013,0.378c28.039,5.521 41.368,6.738 58.68,2.923Zm-267.744,8.632c-17.339,2.706 -41.802,-4.302 -48.44,2.03c29.909,4.465 96.012,6.251 130.066,-0.974c-26.956,-1.705 -43.455,-5.656 -68.866,-2.815c19.803,6.062 -17.718,-2.11 -17.853,-1.542c2.844,0.352 3.955,1.84 5.093,3.301Zm285.651,-2.111c5.96,-0.027 11.866,-0.081 17.826,-0.135c1.029,-6.711 -17.311,-2.625 -17.826,0.135Zm-196.358,3.112c-1.572,0.109 -3.007,0.298 -2.547,1.678c11.189,0.812 45.92,-1.38 17.826,-1.786c-5.31,-3.626 -8.236,1.543 -12.76,-1.569c-0.162,-1.029 -0.406,-1.976 -2.574,-1.678c0.028,1.136 0.028,2.246 0.055,3.355Zm-145.291,11.095c-2.574,3.356 -9.482,3.897 -12.706,6.765c55.51,2.598 150.249,0.325 214.211,-1.596c-56.621,-8.984 -134.508,0.541 -201.505,-5.169Zm1831.7,66.568c26.198,10.581 64.234,14.478 96.987,12.665c-33.43,-1.489 -70.166,-17.86 -96.987,-12.665Zm-112.104,17.535c8.209,5.006 29.855,3.951 38.253,-0.27c-0.677,3.815 0.651,6.251 5.148,6.63c4.389,-3.437 -1.924,-3.248 2.492,-6.711c-14.114,-6.549 -29.069,-3.167 -45.893,0.351Zm-45.892,2.003c10.213,-0.623 14.168,2.868 25.52,1.488c-0.867,-8.524 -25.358,-4.952 -25.52,-1.488Zm221.986,13.395c8.317,1.407 15.876,1.109 30.613,1.434c-0.27,-7.685 -22.079,-2.869 -30.613,-1.434Zm-2271.85,76.851c-6.312,2.868 -24.761,-3.004 -33.159,1.921c5.689,5.033 29.421,4.086 33.159,-1.921Zm1109.5,8.524c-9.347,1.299 -14.196,-4.005 -20.4,0.162c9.482,7.55 30.722,5.196 48.466,4.627c28.636,-0.893 55.673,-5.114 84.146,-2.273c-27.118,-9.146 -91.027,-4.059 -112.212,-2.516Zm153.012,0.514c11.216,2.029 37.548,0.162 53.559,-3.735c-18.72,2.003 -50.931,-6.25 -53.559,3.735Zm155.558,-4.492c-0.542,7.414 -24.924,-0.541 -25.439,6.873c12.76,2.652 21.863,0.352 33.16,-1.894c1.246,4.384 2.032,5.601 7.721,9.931c53.045,-14.667 104.492,8.713 155.532,-6.143c-56.215,-7.252 -114.895,0.839 -170.974,-8.767Zm-469.222,10.147c-12.977,0.027 -29.448,-7.089 -35.652,3.626c45.892,2.679 91.487,1.408 137.651,-7.685c-33.133,-0.162 -69.923,3.978 -101.999,4.059Z" style="fill:#ff8ea4;"/></g></svg>