<?xml version="1.0" encoding="UTF-8" standalone="no"?><!DOCTYPE svg PUBLIC "-//W3C//DTD SVG 1.1//EN" "http://www.w3.org/Graphics/SVG/1.1/DTD/svg11.dtd"><svg width="100%" height="100%" viewBox="0 0 540 540" version="1.1" xmlns="http://www.w3.org/2000/svg" xmlns:xlink="http://www.w3.org/1999/xlink" xml:space="preserve" xmlns:serif="http://www.serif.com/" style="fill-rule:evenodd;clip-rule:evenodd;stroke-linejoin:round;stroke-miterlimit:2;"><path d="M0,477.509c0,34.49 28.001,62.491 62.491,62.491l415.018,0c34.49,0 62.491,-28.001 62.491,-62.491l0,-415.018c0,-34.49 -28.001,-62.491 -62.491,-62.491l-415.018,0c-34.49,0 -62.491,28.001 -62.491,62.491l0,415.018Zm362.781,-235.949c-8.532,8.532 -20.104,13.325 -32.171,13.325c-12.066,0 -23.638,-4.793 -32.17,-13.325c0,0 0,0 0,0c-8.532,-8.532 -13.325,-20.104 -13.325,-32.17c0,-12.067 4.793,-23.639 13.325,-32.171c32.767,-32.767 78.793,-78.793 78.793,-78.793c0,0 -15.152,-15.152 -28.62,-28.619c-3.429,-3.429 -4.454,-8.586 -2.599,-13.066c1.856,-4.48 6.228,-7.401 11.077,-7.401c33.299,0 86.985,0 115.08,0c10.212,0 18.489,8.277 18.489,18.489l0,115.08c0,4.849 -2.921,9.221 -7.401,11.077c-4.48,1.855 -9.637,0.83 -13.066,-2.599c-13.467,-13.468 -28.619,-28.62 -28.619,-28.62c0,0 -46.026,46.026 -78.793,78.793Z" style="fill:#fff;"/></svg>